<mxfile host="app.diagrams.net" modified="2023-10-04T14:17:23.222Z" agent="Mozilla/5.0 (Macintosh; Intel Mac OS X 10_15_7) AppleWebKit/537.36 (KHTML, like Gecko) Chrome/117.0.0.0 Safari/537.36" version="21.8.2" etag="TGjUsPDNGIFS5qUcDFXz" type="github">
  <diagram name="Page-1" id="W5i-h-m9fyqmjulbPFsd">
    <mxGraphModel>
      <root>
        <mxCell id="0" />
        <mxCell id="1" parent="0" />
      </root>
    </mxGraphModel>
  </diagram>
</mxfile>
